<?xml version="1.0" encoding="UTF-8"?>
<svg version="1.0" viewBox="0 0 150 150" xmlns="http://www.w3.org/2000/svg">
<path d="m104.69 56.689c-2.493 23.951-11.582 40.579-30.315 40.579-18.733 0-27.383-14.961-30.315-39.979-2.4337-22.351 11.582-41.49 30.315-41.49 18.733 0 32.452 18.494 30.315 40.889z" fill="#ccc"/>
<path d="m92.568 89.605c-1.7727 3.8741-3.1686 12.846 2.2973 17.299 9.0727 7.3924 11.842 9.5684 23.447 12.042 25.732 5.4852 23.338 19.208 28.213 30.274l-142.26-0.1183c4.2038-10.45 2.2374-24.321 28.132-30.715 9.4094-2.3235 13.265-4.5047 21.186-11.371 4.9408-4.2829 3.9392-13.023 2.8442-17.747-3.9381-0.43915 37.743-1.1287 36.137 0.33554z" fill="#ccc"/>
</svg>
